<svg xmlns="http://www.w3.org/2000/svg" viewBox="0 0 1052.231 1321.896" height="1321.896" width="1052.231"><path d="M735.085 655.166c-27.164 25.627-80.11 74.355-101.824 93.98-32.62-116.417-84.112-165.562-86.942-167.722-8.902-6.81-21.65-5.102-28.492 3.828-6.805 8.93-5.096 21.68 3.836 28.497.578.467 46.29 45.395 74.602 154.998-12.52 8.166-23.902 17.207-34.08 26.652-.934.783-1.94 1.742-3.146 2.932-35.758 35.64-86.006 21.24-105.797-.29-.042-.04-.075-.07-.11-.114-13.862-16.816-29.898-34.305-47.56-50.508 3.408-14.658-1.383-14.72 8.903-25.336 7.95-5.348 10.09-16.13 4.76-24.082-5.35-7.973-16.104-10.118-24.098-4.758-10.28 9.455-11.568 12.09-18.04 30.535-37.528-27.897-29.206-34.23-88.862-75.78-10.562-3.832-22.206 1.63-26.048 12.205-3.85 10.55 1.623 22.182 12.18 26.038 100.963 82.03 117.256 97.53 161.89 155.876.39.528.78 1.048 1.354 1.892 8.357 12.086 34.326 56.666 31.59 139.98-.02.655-.02 1.14-.04 1.776-2.6 102.275-7.92 235.562-18.132 244.793-16.71 15.116 135.842 24.683 111.838 0-14.95-15.38-19.154-152.495-20.2-253.517-.032-6.11.39-87.786 40.442-134.52 1.564-1.804 3.143-3.587 4.826-5.372 14.25-17.296 24.04-26.31 40.295-40.772l.17-.117c28.4-21.49 108.25-86.616 134.587-111.496 8.064-7.598 8.54-20.573.814-28.734-7.67-8.182-20.545-8.577-28.715-.864zM542.462 951.663c.01.02.033.107.033.13l.182 24.733c-.088-8.595-.162-16.888-.215-24.863z" fill="#6D4B00"/><path d="M218.443 268.76c-5.262-7.022-19.205-25.886-19.562-28.857-.44-3.668 1.275-6.842-1.616-9.753-2.895-2.917-12.28.92-8.963 8.896 3.32 7.972 22.43 27.365 22.43 27.365s-21.834-18.112-39.565-13.748c-17.736 4.363-31.882 26.304-31.882 26.304s23.682 12.442 42.2 1.398c18.525-11.04 31.864-10.347 31.864-10.347l1.8 2.19c-11.115 10.184-22.314 6.824-31.346 28.973-9.3 22.817.27 39.504 11.293 50.612 21.94 22.096 65.5 36.648 95.567 19.992 4.008-2.223 6.904-10.63 10.846-14.544 3.945-3.918 12.796-5.54 15.403-11.52 13.055-29.92-4.588-79.326-20.085-94.93-10.933-11.015-32.39-20.48-51.376-12.53-17.625 7.378-17.8 19.594-27.007 30.5zM513.99 316.423c-2.173-3.223-5.554-6.604-2.24-8.64 9.25-4.23 18.17-1.587 29.1-1.9 10.722-.31 21.927 3.04 32.32 11.314 51.025-18.053 66.095 23.155 100.424 22.863 22.577-.192 65.702 17.763 77.794 44.952 11.372 24.604 3.707 57.02-16.762 74.793-22.092 19.187-53.188 31.537-90.82 6.334-30.94-20.712-25.453-49.666-39.068-76.188-28.78-32.69-33.52-42.763-34.74-66.6-8.9-5.772-15.275-7.934-28.232-8.96-12.71-1-17.132 1.543-27.777 2.03zM646.908 683.274l16.408-10.412 1.114-.783 2.553-1.55 2.705-1.708 2.068-1.07 2.7-1.405 1.762-1.39.804-1.107.163-.482 1.108-.46 2.71-1.072 2.86-1.862 1.925-2.188.49-.785.78-.146.635.002.318.008 8.268-3.708 6.7-4.99 4.322-4.213 1.595-1.875 7.156-3.24 4.952-3.903 3.04-3.286.81-1.413 7.77-2.917 5.098-3.094 2.724-2.35.802-.78 5.23-1.366 4.765-2.47 4.476-3.113 3.512-3.434 2.887-3.45 2.236-2.822 1.298-1.886.483-.783 1.27-.603 3.18-1.242 4.13-1.85 3.98-2.01 3.504-3.116 3.54-4.394 2.592-4.093.97-1.567 2.997-.13 3.335-.75 2.864-1.23 3.016-1.39 2.382-1.39 1.92-1.25 1.272-.932.48-.466 2.888-3.446 1.78-3.617 1.156-3.626.2-3.643-.437-3.635-.91-3.49-.14-.338-.144-.56-1.39-3.334-1.536-3.18-1.707-3.022-2.03-2.714-1.392-1.903c3.535-2.065 7.105-4.547 9.755-5.873l6.688-3.402 7.626-3.39 8.427-3.54 8.89-3.693 9.69-3.53 10.162-3.36 10.942-3.203 11.104-2.714 4.025-.896.563 1.416 1.395 2.39 1.26.645.958-.618.81-1.416.486-1.41.336-1.27.16-.467.957-.313 1.892.024 1.66.58.085 1.24-.17 1.415.134 1.744.28.873v.023l.46 1.43.775 1.44.775 1.427 2.027 2.084 1.1.806 2.367.808 2.53.35 1.873.162-.93 1.797-.19 2.374.332.253-.048.64 2.514 1.926 3.807-.59 2.714-3.293 1.562-3.33.073.56.25.6.04.287.457 1.113.628.96 1.1.802 1.266.654 1.73.49 1.582.017 1.428-.772.97-1.253.807-1.73.176-1.74.337-1.573.16-1.11v-.316l1.982 5.873 1.734 1.446 1.58.02 1.433-.776 1.592-1.564 1.133-1.727.812-1.73.38-.738-.224 2.85.306.527-.026.373 3.414 5.732 1.898.018 1.436-.778 1.124-1.728.812-2.044.347-2.213.342-1.89.014-1.27.008-.623 1.09 1.438 1.415 1.122 1.408 1.134 1.417.804 1.257.956 1.104.492.782.485.31.005 2.05.18 1.114-.78.174-1.103-.298-1.587-.615-1.915-.004-.012-.286-.878-.772-1.43-.557-.796 1.2-1.472.17-1.1-.33-.613.046-.29-.77-1.437-1.102-1.118-1.567-.957-1.262-.652-.382-.168 1.48-.67.02-1.582-.296-.303.01-.59-1.83-1.865.098-.268.32-.31.798-.466 1.427-.15 2.063-.133 2.997.508 2.523.027 1.112-.457.168-1.103-.328-.608.046-.293-.774-1.434-1.096-1.437-1.618-1.656.354.003 2.217.03 4.272-.114 2.217-.604.81-1.417-.29-2.217-.532-1.667-.517-1.62-1.08-2.378-1.236-2.227-.865-1.126.528.114 1.43-.148 1.76-1.398 1.147-3.626-.45-2.38-.144-.143-.14-.757-1.725-1.735-2.833-1.303-3.306-.822-3.158-.668-2.84-.358-.297-.003.43-.204 1.764-2.04.515-3.318-.314-.717.03-.18-.777-1.748-1.724-.81-2.217-.343-2.37.13-2.697.45-2.067.452-1.196.314 1.69-2.743.013-1.262-.283-.692v-.202l-.464-1.116-.782-.805-1.263-.646-1.258-.318-.943-.338-.79-.164-.324-.002-5.195 1.66.106-.828-.288-1.91-.263-.696-.028-.202-.767-2.064-.926-1.907-.774-1.75-.438-.63.74.253 1.896.34 2.378-.763 2.09-2.663.183-2.06-.298-.796.006-.095-.76-2.063-1.724-2.07-2.186-1.932-2.198-1.61-1.884-1.283L936.2 426l1.104-1.077.186-1.74-.284-.892-.16-.493-.01-.042-.29-.897-.307-.637-2.82-2.555-2.363-1.132-2.367-.192-1.745.46-1.6.93-1.274.933-.642.943-.327.31-3.45-1.615-3.337 1.065-2.39 2.026-.748.73-.062-.954-.257-.406-.03-.486-1.083-1.75-1.388-1.415 6.18-4.596.32-.32.486-.785.643-1.256.817-1.73.33-1.586.183-1.73-.45-1.75-.073-.08-.214-.815-1.252-1.278-2.992-.83-2.552 1.24-1.765 2.03-.638.947-5.946-3.494 3.332-4.66.965-.937.17-1.102-.145-1.104-.21-.296-.08-.598-.785-1.118-.78-1.123-.62-.96-2.18-2.234-1.58-.965-1.73-.498-1.585-.335-1.732-.178-1.153.114.184-.182.492-1.418.02-1.273-.285-.873-.002-.017-.463-1.424-.62-1.286-.622-.945-.777-.8-2.663-2.37-2.675-.824-2.06.454-1.917 1.245-1.604 1.556-1.002 1.55.194.5.06.315-.297-.75.042-.063-.42-1.082-1.25-1.91-2.027-2.717-2.508-2.245-2.524-.34-2.38.763-1.915 1.556-1.764 2.045-1.282 1.878-.81 1.416-.22.432-.267-1.594-.218-.504-.07-.396-.765-1.75-1.258-.96-1.107-.49-1.103-.17-.95.305-.795.155-.144.14-2.062-.174-.955.617-.334 1.256.3 1.585.206.47.08.425.772 1.753.61 1.59.48.68-4.263-.353-2.856 1.227-1.765 1.726-.482.786-2.607-6.52-1.564-1.59-1.576-.655-1.43.14-1.116.787-1.124 1.092-.637.94-.486.796-.17.466-3.093-5.73-5.51-2.433-3.932-.536-2.697.765-1.604 1.563-.81 2.045-.342 1.89-.015 1.592-.008.628-3.775-1.626-2.533-.03-1.747.773-.973 1.57-.34 1.896-.18 1.735.145 1.43.155.476-2.374.135-1.27.304-.485.783.15.794.222.52.07.38.46 1.116.78 1.12.937 1.272 1.086 1.43.938 1.28 1.416 1.132 1.25.96 1.414.808 1.1.483 1.102.49.63.32.222.01.858 4.014-2.815-2.556-2.51-1.62-2.052-.488-1.898-.026-1.588.617-.955.615-.968.943-.486 1.1.3 1.584.19.36.097.54 1.08 2.07 1.56 2.234 1.715 2.078 1.562 1.9.807.833-5.555 1.394-.975 2.207.338.765-.054.126.775 1.748 1.246 1.287.787.483 9.896 6.15-.313.498-.645 1.573.294 1.587.135.07.15.83 2.053 1.13 2.202.34.753.12-.117 1.516.604 1.91.004.005.283.894.94.958 1.265.642 1.258.334 1.104.167.793-.145.316.003 2.494-3.332-.236 1.513-2.31 8.518-2.953 8.812-3.74 9.295-4.226 9.436-4.367 9.282-4.697 9.278-4.688 8.646-4.514 8.17-4.365 7.382s-3.478 6.055-3.7 6.43c-.36.633-.75 1.317-1.138 2.027l-.378-.385-3.93-3.048-4.858-3.064-5.994-2.31-6.467-.547-7.458 1.66-7.32 4.653-1.44 1.41-3.213 3.763-1.22 2.062c-1.03-.274-2.135-.035-2.92.742l-.16.148c-.617.596-.93 1.413-.913 2.234l-1.396 5.324c-.178.67-.1 1.362.176 1.993l-3.224 1.93-4.456 3.43-3.053 3.598-2.098 3.932-1.068 2.337c-.96-.09-1.93.21-2.587.945l-2.09 2.347c-.8.898-.994 2.198-.495 3.293l.39.84-2.19 1.528-2.707 2.34-2.564 2.82-2.563 3.45-1.675 3.69c-1.004.038-1.942.557-2.487 1.445l-1.445 2.356c-.4.66-.553 1.458-.392 2.22l.26 1.213-.89.866-2.24 2.493-2.248 3.146-2.26 3.763-1.63 4.41-.02.112c-1.392-.185-2.727.577-3.24 1.89l-.965 2.52c-.246.62-.268 1.29-.102 1.926l.236.818-.906.745-2.4 2.032-2.397 2.34-1.934 2.827-.262.768c-1.16.188-2.154 1.008-2.463 2.194l-.663 2.523c-.104.384-.125.78-.08 1.175l.024.15-1.382.72-2.23 1.556-2.24 2.186-2.097 2.67-1.614 3.144-.826 3.625-.49.79-1.437 2.04-2.092 2.658-1.93 2.834-.964 1.87-1.134 2.05-.81 1.417-.315.632-1.116.775-2.57 2.5-2.567 3.766-1.316 4.73-.333 1.57-.494 1.415-.332.953-.155.477-10.307 16.636.51.53-.233.372.615.67zm191.535-247.67l.07.038.272.843 1.792 1.017 2.093.686.965.268.47.13-.37 1.502-3.33 9.35-5.103 11.976-7.35 14.46-10.087 16.817-10.542 15.08 3.2-6.375 4.87-10.375 3.945-9.694 3.364-8.727 2.448-8.042 2.328-7.238 1.42-6.57 1.146-5.596.69-5.103.384-2.87 1.41.88 2.07.06 1.994-1.212 1.206-1.333.385-.75.26.778zm16.907 11.974l-1.665 1.513-1.083.522-1.05 1.164-1.912 2.79-1.146 2.594.58.33-.245.554 1.794 1.016 1.81.36-1.542 1.42-5.745 5.36-5.572 5.824-2.977 3.286 1.422-2.323 3.624-6.68 3.307-6.647 3.015-6.33 2.06-6.28 1.122-4.035 2.456 2.745 2.246 1.547-.5 1.27zm19.785 38.064l1.4 2.782 1.826 1.657 1.747.064.57-.282-.356 1.126.418 1.876.22.33.12.55 1.02 1.534 1.392.97-3.8 1.107-7.486 2.27-7.775 2.608-8.553 3.117-8.697 3.615-9.3 3.95-9.42 4.738-9.402 5.064-9.537 5.547-4.805 3.12 3.825-3.45 10.612-9.4 12.306-10.27 13.74-10.183 14.397-9.904 12.954-7.466.123.002 1.112.1.498-.024.07 1.48.447 2.51.28.558.055.306zm-28.525-9.818l7.89-7.502.498.92 1.006 1.134-7.512 7.792-11.26 15.45-29.5 26.735 12.185-15.005 14.064-16.222 12.63-13.302zm14.877-.108l1.494 1.353.99.586 1.1.708-5.172 2.875-8.567 6.124-3.997 3.73.34-.437 9.554-11.56 3.987-4.2.354.32-.08.5zm11.173-99.938l-.64.704.448-.917.096-.163.096.376zM310.946 447.892c-8.71 1.522-14.62 8.88-15.214 17.328-8.188 5.357-12.865 15.258-11.072 25.513 1.457 8.337 6.864 14.948 13.953 18.37-.267 8.562.434 18.577 3.918 25.538-12.173-5.145-24.274-10.526-35.183-15.486 3.813-13.75.706-27.99-7.678-38.745 1.217-1.575 2.312-3.27 3.103-5.192 4.75-11.603-.82-24.865-12.423-29.612-1.93-.788-3.9-1.196-5.877-1.444-2.002-15.154-11.675-28.873-26.834-35.076-22.55-9.23-48.3 1.57-57.527 24.116-.305.75-1.53 2.327-.737 2.25 3.107 8.592-18.047 4.227-21.678 13.1-.27.667-.394 1.333-.597 1.987-18.102-.84-35.604 9.446-42.863 27.187-5.792 14.156-3.69 29.55 4.25 41.355-1.56 1.923-2.96 4.018-3.946 6.427-3.557 8.693-1.934 18.142 3.33 25.152-2.225 2.925-4.194 6.077-5.655 9.642-9.223 22.535 1.566 48.293 24.112 57.527 11.178 4.57 23.05 4.058 33.388-.2 2.686 3.262 6.107 6.01 10.304 7.73 13.06 5.345 27.832-.58 33.822-13.157 19.52 2.762 39.164-7.748 46.972-26.834.373-.92.48-1.856.797-2.776 27.176 7.285 74.33 20.863 97.933 33.252 36.724-26.663 25.98-48.936 24.36-59.526-7.808-1.433-18.952-5.042-31.446-9.688-11.23-10.216-12.492-27.27-12.038-37.538 7.355-3.538 12.52-10.36 13.932-18.31 7.125-1.493 11.863-8.303 10.605-15.494-1.095-6.2-6.247-10.4-12.233-10.896-.028-.417.105-.784.043-1.2-1.818-10.247-11.593-17.1-21.82-15.302zm-9.17 120.73l-49.822-10.25c.773-1.058 1.665-2.015 2.185-3.288 1.888-4.615 1.28-9.5-.915-13.575l48.552 27.112zM637.254 502.525c2.89-3.49 4.087-12.47 3.104-17.19 0 0-3.89 12.258-7.616 12.726 2.298-7.256-.394-10.036-2.084-11.672-.86 3.584-4.155 5.29-4.155 5.29-1.138-4.216 1.293-8.4-3.16-11.74-.638 7.23-.34 10.63-2.547 13.236-6.24-1.158-6.595-.92-8.38-4.825-.933 3.797-.33 7.983 1.818 11.625-2.562-.61-3.29-5.25-8.284-6.004 0 0 6.708 4.885 5.012 13.71-.385.058-.77.116-1.16.18-57.806 9.464-34.95 63.263-24.06 75.802 10.89 12.55 20.517 36.968 26.796 44.855 12.005 15.104 25.98 5.77 27.808.015 1.83-5.75 17.428-34.95 20.664-40.805 23.31-37.013 12.117-74.876-26.322-80.433 9.003-3.825 14.46-5.397 15.458-11.142 0 0-7.253 8.163-12.892 6.373zM404.675 150.213c2.602-5.812 5.892-11.95 9.605-16.146-8.902.84-16.79 15.79-16.79 15.79s-.13-17.727 1.65-24.42c-6.93 7.154-8.99 23.295-8.99 23.295s-5.486-11.974-6.78-18.78c-.877-4.623.26-15.494.26-15.494l-8.408 1.023s.273 10.982 1.883 16.267c1.87 6.113 8.535 17.934 8.535 17.934s-14.994-6.002-25.132-4.863c6.744 1.75 13.873 6.996 19.578 12.113-3.985.048-8.003.617-11.973 1.752-26.848 7.688-41.61 38.408-32.96 68.608 8.65 30.212 37.43 48.46 64.278 40.772 8.198-2.347 17.276-3.14 23.683-7.67 8.114-.27 16.818-3.925 24.93-6.247 26.85-7.687 41.603-38.4 32.953-68.612-8.647-30.2-37.422-48.458-64.27-40.77-4.35 1.245-8.382 3.094-12.05 5.45zM465.026 762.016s34.526-.854 37.378-30.84c0 0 25.88 14.465 45.11-14.623 0 0 16.68-28.97-10.696-45.302 0 0-9.492-6.496-26.205 4.73l-1.13 1.033s-13.07-43.604-51.316-55.66c0 0 8.14 1.548 17.696-11.57 0 0 10.97-21.143 11.085-21.427 0 0-16.31 5.1-21.29 5.438-4.98.34-25.277 6.694-25.832 26.723 0 0-21.048 1.38-24.246 24.02 0 0 1.104 19.372-.69 21.706l-.823 4.23s39.087-15.902 29.89-42.186c0 0 37.243 6.788 21.9 75.94 0 0-25.715-13-35.75 16.205.005.002-6.936 36.705 34.92 41.584zm4.68-59.822c2.653-9.164 13.286-53.785-22.23-78.55 0 0 36.97-1.112 58.908 53.944.102.255.2.518.293.757-4.736-.404-22.567-.473-26.488 20.785l.112 2.874s-4.987-1.817-10.595.19zM611.913 162.005c28.02 15.283 39.74 49.272 26.137 77.353-14.035 28.973-49.712 40.693-79.688 26.172-29.975-14.52-42.892-49.784-28.854-78.757 13.87-28.63 48.868-40.4 78.613-26.676 2.605-8.172 7.408-23.725 6.93-25.947-.657-3.04-2.884-5.098-1.377-8.206 1.506-3.11 10.017-2.615 9.553 4.63-.465 7.252-10.368 27.9-10.368 27.9s12.43-20.373 27.73-21.747c15.302-1.368 32.553 12.225 32.553 12.225s-15.443 16.378-33.197 12.64c-16.512-3.463-26.684-.075-28.03.413zM376.747 390.67c17.654 16.978 47.203 19.857 71.817 5.34 23.955-14.133 35.737-40.318 30.532-63.52.562-1.104 1.234-2.46 1.97-3.82 1.79-3.283 1.235-8.712-1.71-13.715-2.584-4.368-6.338-7.29-9.74-7.977-.806-.162-3.437-.3-5.872-.398-17.8-15.67-46.33-17.96-70.22-3.868-24.624 14.53-36.395 41.8-30.052 65.478-.197.946-.494 1.98-.965 3.037-1.793 4.054-1.056 11.173-.133 12.742.926 1.573 6.824 5.45 11.186 5.987 1.17.142 2.234.404 3.187.712z" fill="#2D7F17"/><g fill="#2D7F17"><path d="M504.994 492.117s8.72-13.83 27.652-18.016c18.926-4.184 35.236-17.372 27.588-36.22-5.424-8.35-18.744.958-13.137 10.16 5.604 9.198-7.713 11.425-15.584 11.575-7.88.142-12.46-.31-14.25-3.42-1.785-3.114-21.308-24.358-21.308-24.358l-12.146 38.78 21.184 21.5z"/><path d="M507.335 423.537c10.492 1.862 22.378 26.758 15.154 45.213 13.2 8.943 14.317 24.436 4.886 41.413 15.47 16.385 1.37 44.177-9.803 47.972-51.352 25.24-126.727-9.608-134.11-21.55-6.834-11.082-5.294-15.717-.92-21.64-.328-.198-.82-.91-1.305-1.667-.4-.548-.87-1.215-1.364-1.973-.013-.02-.04-.048-.054-.056.008 0 .015.007.024.013-3.397-5.26-7.956-15.042-.576-21.868.74-.528 1.565-1.085 2.423-1.66-3.81-7.325-6.468-16-3.663-22.613 5.493-12.92 74.73-58.764 129.308-41.585z"/></g><g fill="#2D7F17"><path d="M730.5 204.09c-1.7-.266-3.43-.446-5.09-.47 1.792.152 3.496.326 5.027.505.022-.013.043-.02.062-.035zM740.928 255.828c.66-4.85 1.52-10.88 3.748-15.932-.3-.086-.595-.228-.826-.486-2.532-2.77-14.52-14.65-20.86-14.924-.274.076-.52.055-.742-.01-.897.1-1.65.485-2.202 1.246-4.79 6.64-5.615 15.202-4.532 23.173.06.45-.088.85-.323 1.195 8.913 2.206 18.984 13.08 25.148 20.517-.254-4.976-.063-9.997.59-14.78z"/><path d="M717.66 206.042c-2.083 2.314-3.297 5.22-3.788 8.282 1.817 1.936 3.29 4.918 4.607 7.714.522-.363 1.077-.68 1.666-.966.59-.283 1.232-.443 1.887-.52 1.133-5.554 3.476-13.427 8.4-16.43-1.527-.177-3.234-.357-5.034-.51-3.15-.042-6.034.52-7.74 2.43zM715.165 225.388c-.894-1.785-1.838-3.547-2.8-5.306-1.593-2.907-3.85-7.8-7.25-1.723-1.208 2.16-2.16 4.315-2.968 6.632-2.27 6.55-4.154 13.23-5.688 19.985-.033.17-.127.35-.26.536 3.497 2.174 6.95 5.818 8.677 7.41 1.873-1.96 3.98-2.946 6.234-3.166-.93-7.05-.626-17.83 4.055-24.37zM692.767 246.174c-2.586 3.87-2.447 10.528-2.35 14.943.197 8.614 3.24 17.113 8.97 23.496-1.686-11.43-.298-23.34 3.774-29.547.255-.382.516-.707.774-1.042-1.027.012-2.272-.19-2.7-.564-1.775-1.533-3.556-3.066-5.306-4.624-.606-.55-1.228-1.086-1.834-1.623-.348-.305-.864-.65-1.21-1.044l-.117.004zM760.763 208.034c6.295-1.728 14.874 3.313 20.053 6.122 1.433.78 2.858 1.595 4.274 2.428-7.66-9.732-19.733-14.998-31.753-17.856-3.03-.714-13.662-4.876-11.958 1.48.366 1.39.916 2.704 1.56 3.968 4.812 1.584 9.662 4.354 13.118 7.052 1.277-1.52 2.83-2.674 4.705-3.194zM725.815 282.042c-4.12.53-4.742 5.48-5.125 8.803-.78 6.892 1 13.8 4.54 19.718.056-.006.11.008.165.005-.028.004-.083.043-.126.067 1.23 2.053 2.675 3.97 4.306 5.73 7.627-.195 15.49.883 22.88 3.247-5.753-8.602-8.316-19.307-5.443-28.916.23-.793.538-1.486.885-2.114-3.416-2.24-7.875-3.864-11.533-4.958-3.112-.942-7.28-2.014-10.55-1.582zM721.884 313.194c-9.567-.038-16-7.452-19.622-17.164-3.576-2.674-13.34-9.614-12.216-3.09.985 5.75 3.597 10.584 7.57 14.868 4.368 4.703 9.318 8.926 14.797 12.277.065.04.092.085.152.13 3.443-1.984 8.285-3.006 11.938-3.474-.92-1.134-1.783-2.313-2.584-3.558-.01.004-.022.01-.036.012zM746.83 236.062c1.513-2.16 3.446-3.917 5.94-5.054-1.37-4.455-1.124-10.853.947-15.82-3.79-2.936-9.218-5.72-13.797-7.146-.028-.023-.074-.01-.095-.033l-.003-.008c-.854-.262-1.68-.49-2.453-.65-8.414-1.747-10.815 6.59-12.09 13.495 3.572.876 7.284 3.31 9.546 4.882 4.333 3.03 8.386 6.465 12.005 10.332zM803.17 267.322c-1.883-4.76-3.617-10.697-7.053-14.602-6.066-6.89-17.978 10.59-20.454 15.146-3.28 6.018-6.168 13.553-5.2 20.65 1.17.598 2.233 1.182 3.11 1.712 6.49 3.905 12.553 8.544 17.518 14.09.63-9.562 2.798-19.572 7.415-27.717.856-1.505 3.208-4.738 6.167-8.004-.65-.185-1.227-.58-1.502-1.274zM798.272 324.608c-1.338.933-2.708 1.844-4.195 2.705-4.66 2.706-9.744 5.513-15.028 7.952-.328.267-.71.43-1.142.505-3.34 1.494-6.758 2.802-10.22 3.832.147.186.263.375.288.574.557 4.59 10.18 2.896 12.758 1.642 4.802-2.335 9.524-4.887 14.116-7.628 4.808-2.867 10.957-5.867 14.654-10.19 2.854-3.336 3.08-10.232 3.04-14.468-2.996 4.76-6.605 8.94-11.117 12.64.43 1.78-1.678 2.97-3.155 2.436zM757.386 230.403c3.842.72 7.45 4.052 10.24 6.338 5.62 4.592 11.203 9.224 16.798 13.867 2.115-1.526 4.046-2.468 5.792-2.885-.73-4.755-2.63-15.845-1.715-24.16-6.7-5.348-15.88-10.716-24.115-12.442-7.68-1.608-9.085 13.094-7 19.283zM794.395 219.365c-2.708 8.793-1.135 19.232.184 28.376 6.108 1.706 9.672 10.404 12.71 18.12 3.203-3.126 6.743-5.81 9.76-6.417-.623-7.616-2.25-15.312-5.17-22.35-1.313-3.18-14.25-28.235-17.485-17.728zM745.927 281.663c.08.34-.076.728-.33 1.112 1.99.99 3.732 1.998 5.075 2.898 3.92-2.405 9.843-1.25 15.03.737-.69-11.784 6.79-25.083 15.255-32.956-7.23-6.366-15.118-15.054-23.68-18.757-15.386-6.66-13.45 37.902-11.35 46.966zM826.844 247.648c-1.882-4.38-4.456-8.355-6.766-12.52-2.098-3.77-2.098-5.337-5.115-1.652-.08.11-.227.192-.37.26 3.864 8.563 6.275 17.69 6.965 27.07.27.3.528.62.765 1.025.622 1.065 1.104 2.156 1.516 3.248 3.31-5.355 5.768-10.992 3.004-17.43z"/><path d="M718.466 282.04c3.205-6.895 14.237-4.744 23.074-1.11-.153-.822-.278-1.656-.405-2.497-.16.06-.294.078-.34.02-5.857-7.523-12.44-15.724-20.46-20.978-3.134-2.058-7.16-5.015-11.075-5.015-5.804.002-5.908 10.417-5.993 14.657-.238 12.263 1.783 37.55 16.666 42.565-4.345-8.602-5.567-18.823-1.467-27.64zM739.924 321.107c-5.997-.89-12.264-1.355-18.258-.177-2.55.503-14.963 2.146-7.822 6.904 17.205 11.468 38.326 12.354 57.307 6.59-4.52-1.52-8.7-4.115-12.32-7.44-5.86-2.9-12.49-4.922-18.906-5.877zM813.88 303.534c3.838-8.42 10.658-21.937 8.15-31.52-.88-3.385-2.32-10.255-7.422-7.954-7.924 3.59-13.932 10.497-16.68 18.72-2.6 7.73-4.104 15.99-4.165 24.187 0 .126-.045.285-.102.442 2.874 3.728 5.26 7.835 6.956 12.366 5.503-4.227 10.137-9.41 13.264-16.242zM761.63 323.44c4.527 4.445 10.264 7.546 16.908 8.25.072.008.1.04.166.055.854-.357 1.715-.695 2.55-1.066 5.42-2.432 10.712-5.034 15.512-8.178-3.974-11.604-13.11-21.023-23.497-27.274-3.75-2.26-7.76-4.68-12.015-5.854-13.96-3.88-10.923 12.578-8.906 18.83 1.812 5.598 4.91 10.846 9.03 14.972.027.016.055.026.084.042.08.04.115.143.166.223zM779.045 335.27c-.38.17-.755.335-1.138.505.433-.08.815-.244 1.138-.504zM761.46 323.22c-.028-.013-.056-.024-.087-.037.087.08.166.17.257.26-.05-.082-.085-.184-.17-.222zM813.004 234.105c-.096-.002-.19 0-.29-.01.378.833.752 1.685 1.095 2.53l-.806-2.52zM725.4 310.568c-.06.003-.114-.01-.167-.006.014.022.026.046.042.072.042-.025.095-.064.124-.066zM711.02 321.265c.024-.023.06-.047.09-.068-.04-.03-.084-.053-.122-.073l.033.14zM791.58 220.954c-.1.066-.202.125-.303.196.083.03.16.06.24.093.02-.097.045-.185.062-.29zM731.507 204.257c-.335-.058-.666-.113-1.008-.167-.022.01-.04.022-.063.035.37.043.715.086 1.07.132zM722.993 224.483c-.248-.01-.515-.042-.745-.01.225.066.477.084.745.01zM712 214.978c-.074-.02-.15-.033-.224-.044.06.066.13.114.188.19.01-.046.026-.097.036-.146zM739.92 208.042c-.035-.02-.068-.03-.097-.04v.01c.018.025.07.007.098.03zM739.118 205.574c-.217-.073-.42-.105-.633-.163.026.055.045.105.07.156.424.064.613.066.563.008zM812.543 309.3v.233c.13-.203.262-.407.392-.614-.225.038-.397.144-.392.38z"/></g><path d="M774.152 340h-7.034c.57 0-37.228-10.834-37.228-10.834l-15.856-6.29-1.47-2.635-10.303-24.197-2.873-11.424-4.92-37.076 1.733-2.03 16.796-24.27.875-6.92s14.568-9.565 16.566-10.2 8.078.793 12.503.05c16.326-2.734 40.282 10.26 42.148 12.41s6.263 4.29 8.07 8.984c1.81 4.695 15.78 8.454 15.78 8.454s4.496.882 5.65-.285c1.156-1.167 9.476 30.967 9.476 30.967l-2.75 4.64-8.963 37.185.19 3.004-5.46 15.415L774.15 340z" fill="#2D7F17"/></svg>