<?xml version="1.0" encoding="utf-8"?>
<!-- Generator: Adobe Illustrator 16.0.0, SVG Export Plug-In . SVG Version: 6.00 Build 0)  -->
<!DOCTYPE svg PUBLIC "-//W3C//DTD SVG 1.1//EN" "http://www.w3.org/Graphics/SVG/1.1/DTD/svg11.dtd">
<svg version="1.1" id="Layer_1" xmlns="http://www.w3.org/2000/svg" xmlns:xlink="http://www.w3.org/1999/xlink" x="0px" y="0px"
	 width="100px" height="100px" viewBox="0 0 100 100" enable-background="new 0 0 100 100" xml:space="preserve">
<path id="apple_2_" type="MSShapeGroup" fill="#2D7F17" d="M51.987,28.811c0.703-4.95,2.668-18.172,3.72-19.514
	c1.298-1.657,3.267-2.248,3.271-4.586c0.006-2.341-5.325-4.57-7.195-0.017c-1.867,4.552-1.961,20.066-1.961,20.066
	S48.301,8.666,39.391,3.292c-8.912-5.376-23.448-2.216-23.448-2.216s4.548,14.549,16.464,17.545
	c11.917,2.999,17.019,8.647,17.019,8.647l-0.154,1.608c-8.583-0.365-11.75-6.227-24.306-0.925
	C12.033,33.416,9.178,43.998,9.156,52.917C9.118,70.66,20.836,94.059,39.67,99.438c2.511,0.717,7.063-1.511,10.228-1.504
	c3.168,0.007,7.392,2.914,10.851,1.55c17.306-6.818,30.067-33.852,30.095-46.383c0.02-8.844-4.828-21.295-15.688-25.729
	C65.077,23.257,60.091,28.115,51.987,28.811z"/>
</svg>
