<?xml version="1.0" encoding="utf-8"?>
<!-- Generator: Adobe Illustrator 16.0.0, SVG Export Plug-In . SVG Version: 6.00 Build 0)  -->
<!DOCTYPE svg PUBLIC "-//W3C//DTD SVG 1.1//EN" "http://www.w3.org/Graphics/SVG/1.1/DTD/svg11.dtd">
<svg version="1.1" id="Layer_1" xmlns="http://www.w3.org/2000/svg" xmlns:xlink="http://www.w3.org/1999/xlink" x="0px" y="0px"
	 width="100px" height="100px" viewBox="0 0 100 100" enable-background="new 0 0 100 100" xml:space="preserve">
<g>
	<g id="Your_Icon_2_">
		<g>
			<path fill="#2D7F17" d="M56.674,3.52c-0.883-0.726-1.813-1.413-2.756-1.986c0.976,0.691,1.893,1.366,2.709,1.985
				C56.645,3.518,56.659,3.521,56.674,3.52z"/>
			<path fill="#2D7F17" d="M45.195,36.671c2.015-2.556,4.541-5.719,7.521-7.861c-0.142-0.15-0.263-0.331-0.31-0.558
				c-0.515-2.44-3.373-13.288-6.913-15.585c-0.183-0.049-0.316-0.144-0.421-0.256c-0.548-0.246-1.109-0.28-1.682-0.029
				c-4.984,2.188-8.344,6.813-10.412,11.744c-0.119,0.278-0.338,0.458-0.588,0.576c4.36,4.27,6.461,13.896,7.482,20.234
				C41.405,42.001,43.209,39.189,45.195,36.671z"/>
			<path fill="#2D7F17" d="M48.664,0.306c-1.975,0.622-3.65,1.877-4.965,3.465c0.389,1.723,0.225,3.927,0.038,5.973
				c0.422-0.031,0.847-0.026,1.281,0.009c0.433,0.037,0.855,0.162,1.256,0.34c2.522-2.8,6.519-6.519,10.354-6.578
				c-0.816-0.616-1.733-1.295-2.712-1.99C52.126,0.439,50.284-0.211,48.664,0.306z"/>
			<path fill="#2D7F17" d="M40.708,10.545c0.089-1.324,0.143-2.652,0.187-3.984c0.068-2.202,0.425-5.766-3.573-3.433
				c-1.42,0.83-2.692,1.744-3.937,2.799c-3.509,2.986-6.843,6.177-9.999,9.528c-0.076,0.086-0.19,0.157-0.33,0.219
				c1.27,2.424,2.018,5.677,2.47,7.171c1.735-0.491,3.275-0.345,4.64,0.29C32.011,18.783,35.821,12.711,40.708,10.545z"/>
			<path fill="#2D7F17" d="M20.867,14.896c-2.786,1.344-4.953,5.204-6.386,7.766c-2.793,5-3.917,10.895-2.788,16.484
				c2.89-7.116,7.702-13.469,12.129-15.652c0.274-0.132,0.533-0.23,0.794-0.335c-0.592-0.339-1.237-0.876-1.355-1.234
				c-0.5-1.478-1.003-2.956-1.48-4.439c-0.162-0.519-0.337-1.036-0.503-1.547c-0.096-0.292-0.276-0.664-0.34-1.006L20.867,14.896z"
				/>
			<path fill="#2D7F17" d="M72.68,15.987c4.188,1.134,7.4,6.916,9.419,10.271c0.558,0.931,1.1,1.878,1.629,2.833
				c-1.104-8.159-6.242-15.247-12.161-20.939c-1.495-1.432-6.183-7.402-7.351-3.187c-0.259,0.921-0.387,1.858-0.443,2.799
				c2.221,2.53,4.064,5.753,5.133,8.464C70.15,15.789,71.431,15.652,72.68,15.987z"/>
			<path fill="#2D7F17" d="M27.697,46.588c-2.539-1.087-4.564,1.539-5.906,3.313c-2.771,3.685-4.082,8.242-4.051,12.825
				c0.035,0.016,0.061,0.042,0.093,0.06c-0.017-0.006-0.062-0.003-0.095-0.004c0.013,1.592,0.194,3.177,0.534,4.733
				c4.435,2.463,8.574,5.732,12.011,9.58c-0.395-6.869,1.749-13.865,6.635-18.399c0.399-0.377,0.81-0.67,1.22-0.913
				c-1.201-2.436-3.208-4.869-4.934-6.73C31.741,49.463,29.715,47.443,27.697,46.588z"/>
			<path fill="#2D7F17" d="M14.936,63.104c-5.467-3.248-6.65-9.665-5.449-16.45c-1.147-2.738-4.397-10.006-5.955-5.89
				c-1.375,3.625-1.51,7.275-0.679,11.07c0.915,4.166,2.326,8.255,4.333,12.022c0.024,0.045,0.024,0.079,0.043,0.125
				c2.642,0.026,5.76,1.073,8.01,2.038c-0.144-0.959-0.241-1.927-0.28-2.908C14.954,63.108,14.946,63.108,14.936,63.104z"/>
			<path fill="#2D7F17" d="M55.244,27.341c1.594-0.727,3.294-1.081,5.106-0.891c0.719-3.014,3.018-6.595,5.879-8.743
				c-1.18-2.959-3.349-6.385-5.491-8.746c-0.008-0.023-0.039-0.03-0.044-0.051c0,0,0-0.001,0.001-0.004
				c-0.4-0.439-0.798-0.848-1.186-1.2c-4.229-3.838-8.417,0.127-11.476,3.652c1.751,1.707,3.056,4.353,3.821,6.016
				C53.312,20.571,54.476,23.905,55.244,27.341z"/>
			<path fill="#2D7F17" d="M76.969,64.251c0.526-3.362,1.537-7.348,0.886-10.742c-1.15-5.993-13.868,0.001-16.825,1.775
				c-3.908,2.339-8.104,5.682-9.942,10.074c0.468,0.737,0.881,1.429,1.203,2.03c2.399,4.425,4.309,9.127,5.28,13.979
				c3.585-5.265,8.204-10.268,13.596-13.374c0.999-0.574,3.438-1.634,6.232-2.506C77.091,65.163,76.893,64.74,76.969,64.251z"/>
			<path fill="#2D7F17" d="M54.839,95.41c-1.081,0.085-2.173,0.145-3.313,0.135c-3.583-0.022-7.442-0.129-11.291-0.516
				c-0.277,0.044-0.551,0.01-0.824-0.095c-2.416-0.271-4.816-0.674-7.145-1.251c0.021,0.154,0.023,0.302-0.03,0.425
				c-1.229,2.816,4.854,5.093,6.754,5.244c3.538,0.282,7.104,0.413,10.659,0.393c3.72-0.021,8.254,0.335,11.831-0.893
				c2.76-0.949,5.217-4.822,6.622-7.262c-3.322,1.715-6.8,2.892-10.632,3.489C57.115,96.246,55.505,96.216,54.839,95.41z"/>
			<path fill="#2D7F17" d="M63.198,27.66c1.958,1.709,2.901,4.834,3.728,7.085c1.671,4.525,3.307,9.062,4.944,13.609
				c1.727-0.161,3.149-0.049,4.291,0.3c1.186-2.97,3.839-9.962,7.167-14.416c-2.034-5.324-5.482-11.496-9.616-15.262
				C69.856,15.465,64.092,23.411,63.198,27.66z"/>
			<path fill="#2D7F17" d="M88.12,33.822c-4.519,4.123-7.139,10.633-9.468,16.316c2.924,3.036,2.031,9.222,1.17,14.666
				c2.889-0.711,5.821-1.055,7.754-0.384c2.213-4.572,3.877-9.528,4.579-14.544C92.476,47.61,93.519,28.896,88.12,33.822z"/>
			<path fill="#2D7F17" d="M39.344,53.154c-0.069,0.223-0.29,0.393-0.563,0.527c0.804,1.238,1.463,2.402,1.928,3.371
				c3.056-0.057,6.059,2.604,8.36,5.492c3.578-6.982,12.352-12.076,19.855-13.73c-1.994-6.083-3.582-13.722-7.235-18.731
				C55.121,21.078,41.199,47.255,39.344,53.154z"/>
			<path fill="#2D7F17" d="M97.165,60.969c0.4-3.144,0.267-6.289,0.35-9.455c0.068-2.866,0.598-3.763-2.374-2.671
				c-0.083,0.036-0.194,0.034-0.3,0.024c-0.675,6.207-2.373,12.249-5.142,17.855c0.053,0.262,0.093,0.532,0.091,0.845
				c-0.001,0.819-0.093,1.606-0.227,2.369C93.268,67.987,96.578,65.588,97.165,60.969z"/>
			<path fill="#2D7F17" d="M23.488,44.109c4.162-2.869,9.755,2.084,13.591,7.146c0.189-0.522,0.399-1.041,0.61-1.566
				c-0.112-0.021-0.195-0.054-0.201-0.103c-0.817-6.287-1.822-13.204-4.643-18.919c-1.102-2.235-2.409-5.287-4.652-6.608
				c-3.325-1.957-6.897,3.974-8.377,6.374c-4.273,6.943-11.646,22.11-4.812,30.001C15.417,54.043,18.165,47.777,23.488,44.109z"/>
			<path fill="#2D7F17" d="M22.6,73.724c-3.135-2.533-6.567-4.913-10.398-6.261c-1.63-0.571-9.294-3.818-6.81,1.315
				c5.986,12.373,17.785,20.006,30.6,23.107c-2.076-2.397-3.594-5.294-4.546-8.418C29.069,79.829,25.953,76.435,22.6,73.724z"/>
			<path fill="#2D7F17" d="M70.888,88.604c5.038-3.527,13.506-8.97,15.302-15.304c0.638-2.236,2.131-6.656-1.569-7.06
				c-5.748-0.616-11.52,1.312-15.868,5.097c-4.095,3.549-7.744,7.773-10.544,12.447c-0.043,0.072-0.123,0.149-0.208,0.219
				c0.389,3.106,0.369,6.264-0.187,9.431C62.39,92.868,66.793,91.463,70.888,88.604z"/>
			<path fill="#2D7F17" d="M34.246,82.382c1.094,4.072,3.334,7.785,6.901,10.43c0.04,0.029,0.045,0.057,0.077,0.087
				c0.609,0.084,1.216,0.18,1.82,0.25c3.926,0.437,7.833,0.73,11.642,0.549c1.639-7.985-0.417-16.463-4.258-23.548
				c-1.385-2.56-2.865-5.297-4.907-7.406c-6.685-6.932-10.499,3.521-11.452,7.781c-0.851,3.819-0.847,7.869,0.122,11.623
				c0.01,0.018,0.022,0.032,0.034,0.051C34.258,82.248,34.243,82.319,34.246,82.382z"/>
			<path fill="#2D7F17" d="M40.229,95.032c-0.274-0.029-0.544-0.062-0.822-0.095C39.683,95.039,39.957,95.073,40.229,95.032z"/>
			<path fill="#2D7F17" d="M34.222,82.198c-0.011-0.018-0.023-0.033-0.037-0.051c0.022,0.076,0.037,0.154,0.06,0.234
				C34.243,82.319,34.258,82.248,34.222,82.198z"/>
			<path fill="#2D7F17" d="M93.807,48.542c-0.054-0.033-0.109-0.064-0.164-0.104c-0.063,0.605-0.137,1.219-0.225,1.818
				L93.807,48.542z"/>
			<path fill="#2D7F17" d="M17.836,62.787c-0.036-0.019-0.062-0.045-0.093-0.061c0,0.018,0,0.035,0,0.056
				C17.775,62.783,17.818,62.78,17.836,62.787z"/>
			<path fill="#2D7F17" d="M5.991,64.064c0.022-0.006,0.05-0.008,0.074-0.01c-0.013-0.031-0.03-0.058-0.045-0.083L5.991,64.064z"/>
			<path fill="#2D7F17" d="M85.971,33.782c-0.077,0.005-0.156,0.003-0.238,0.011c0.036,0.045,0.072,0.088,0.107,0.134
				C85.881,33.878,85.927,33.836,85.971,33.782z"/>
			<path fill="#2D7F17" d="M57.195,3.955c-0.172-0.146-0.343-0.289-0.521-0.435c-0.015-0.001-0.029-0.001-0.047-0.001
				C56.824,3.667,57.008,3.809,57.195,3.955z"/>
			<path fill="#2D7F17" d="M45.497,12.667c-0.139-0.089-0.281-0.198-0.424-0.257C45.18,12.524,45.318,12.62,45.497,12.667z"/>
			<path fill="#2D7F17" d="M42.407,3.515c-0.037-0.036-0.075-0.069-0.114-0.101c0.011,0.058,0.037,0.109,0.044,0.172
				C42.358,3.563,42.385,3.54,42.407,3.515z"/>
			<path fill="#2D7F17" d="M60.738,8.961c-0.015-0.022-0.03-0.041-0.043-0.056c-0.001,0.003-0.002,0.005-0.002,0.005
				C60.694,8.931,60.73,8.938,60.738,8.961z"/>
			<path fill="#2D7F17" d="M61.11,7.276c-0.099-0.115-0.203-0.202-0.307-0.307c-0.003,0.04-0.009,0.075-0.013,0.113
				C61.013,7.261,61.119,7.327,61.11,7.276z"/>
			<path fill="#2D7F17" d="M68.178,91.457c-0.025,0.038-0.055,0.094-0.079,0.134c0.143-0.073,0.287-0.146,0.432-0.22
				C68.388,91.316,68.254,91.32,68.178,91.457z"/>
		</g>
	</g>
	<path fill="#2D7F17" d="M35.828,95.88l-4.029-2.374c0.327,0.193-17.668-18.761-17.668-18.761l-6.96-8.953l0.047-2.004l2.262-17.337
		l2.208-7.512l9.688-22.896l1.677-0.578l17.808-8.236l2.835-3.668c0,0,11.57-0.565,12.928-0.254
		c1.359,0.311,4.361,3.179,7.146,4.246c10.273,3.941,19.613,19.464,19.956,21.326c0.344,1.861,2.141,4.568,1.593,7.868
		c-0.549,3.299,6.186,10.165,6.186,10.165s2.278,2.022,3.334,1.744s-5.02,20.933-5.02,20.933l-3.141,1.729L68.998,89.595
		l-0.904,1.785l-8.328,6.987L35.828,95.88z"/>
</g>
</svg>
