<?xml version="1.0" encoding="utf-8"?>
<!-- Generator: Adobe Illustrator 16.0.0, SVG Export Plug-In . SVG Version: 6.00 Build 0)  -->
<!DOCTYPE svg PUBLIC "-//W3C//DTD SVG 1.1//EN" "http://www.w3.org/Graphics/SVG/1.1/DTD/svg11.dtd">
<svg version="1.1" id="Layer_1" xmlns="http://www.w3.org/2000/svg" xmlns:xlink="http://www.w3.org/1999/xlink" x="0px" y="0px"
	 width="100px" height="100px" viewBox="0 0 100 100" enable-background="new 0 0 100 100" xml:space="preserve">
<path fill="#2D7F17" d="M87.864,66.722c-1.499-2.646-4.564-3.711-7.37-2.928c-2.681-2.032-6.428-2.403-9.543-0.641
	c-2.532,1.435-4.05,3.95-4.34,6.643c-2.804,0.903-5.969,2.286-7.82,4.218c0.261-4.538,0.606-9.078,0.952-13.185
	c4.896-0.354,9.149-3.004,11.666-6.963c0.651,0.214,1.326,0.372,2.041,0.406c4.307,0.198,7.959-3.137,8.158-7.444
	c0.031-0.717-0.063-1.401-0.21-2.073c4.677-2.397,8.003-7.114,8.262-12.742c0.388-8.371-6.085-15.464-14.455-15.85
	c-0.277-0.013-0.93-0.228-0.814,0.021c-2.424,1.999-3.452-5.357-6.746-5.509c-0.249-0.011-0.478,0.026-0.713,0.036
	C65.112,4.75,59.759,0.269,53.174-0.034c-5.253-0.242-9.998,2.217-12.905,6.153c-0.804-0.283-1.644-0.496-2.539-0.537
	c-3.226-0.148-6.1,1.468-7.763,3.982c-1.204-0.381-2.453-0.655-3.776-0.717c-8.365-0.386-15.463,6.083-15.852,14.454
	c-0.189,4.148,1.349,7.935,3.921,10.792c-0.747,1.247-1.242,2.673-1.314,4.23c-0.223,4.849,3.402,8.949,8.168,9.437
	c1.359,6.642,7.033,11.794,14.117,12.119c0.34,0.014,0.657-0.061,0.991-0.063c0.778,9.646,1.824,26.489,0.537,35.566
	c12.878,8.815,18.852,2.763,22.095,1.015c-0.438-2.694-0.555-6.721-0.493-11.305c2.014-4.817,7.394-7.196,10.771-8.233
	c1.995,1.974,4.803,2.858,7.539,2.4c1.309,2.135,4.062,2.883,6.247,1.645c1.882-1.071,2.646-3.226,2.116-5.223
	c0.131-0.056,0.264-0.056,0.395-0.123C88.536,73.786,89.629,69.827,87.864,66.722z M47.697,77.693l-2.433-17.322
	c0.431,0.128,0.845,0.306,1.317,0.329c1.712,0.077,3.225-0.683,4.292-1.866L47.697,77.693z"/>
</svg>
