<?xml version="1.0" encoding="utf-8"?>
<!-- Generator: Adobe Illustrator 16.0.0, SVG Export Plug-In . SVG Version: 6.00 Build 0)  -->
<!DOCTYPE svg PUBLIC "-//W3C//DTD SVG 1.1//EN" "http://www.w3.org/Graphics/SVG/1.1/DTD/svg11.dtd">
<svg version="1.1" id="Layer_1" xmlns="http://www.w3.org/2000/svg" xmlns:xlink="http://www.w3.org/1999/xlink" x="0px" y="0px"
	 width="100px" height="100px" viewBox="0 0 100 100" enable-background="new 0 0 100 100" xml:space="preserve">
<path fill="#2D7F17" d="M55.249,99.562l0.689-4.878l0.032-0.343l0.121-0.748l0.115-0.803l0.134-0.575l0.172-0.753l0.022-0.566
	l-0.082-0.338l-0.065-0.112l0.093-0.289l0.239-0.699l0.111-0.859l-0.105-0.729l-0.071-0.226l0.101-0.174l0.104-0.121l0.054-0.061
	l0.644-2.206l0.14-2.113l-0.103-1.526l-0.099-0.616l0.552-1.915l0.062-1.597l-0.135-1.127l-0.14-0.389l0.716-1.979l0.241-1.492
	l-0.005-0.913l-0.019-0.282l0.597-1.233l0.307-1.325l0.136-1.375l-0.085-1.244l-0.191-1.124l-0.177-0.896l-0.15-0.561l-0.072-0.222
	l0.093-0.345l0.283-0.817l0.322-1.102l0.268-1.099l-0.025-1.188l-0.266-1.406l-0.363-1.173l-0.144-0.443l0.469-0.602l0.403-0.767
	l0.234-0.755l0.228-0.81l0.123-0.689l0.075-0.575l0.029-0.399l-0.011-0.17l-0.19-1.124l-0.405-0.938l-0.509-0.819l-0.671-0.637
	l-0.772-0.514l-0.822-0.399l-0.089-0.029l-0.132-0.064l-0.871-0.281l-0.867-0.226l-0.863-0.168L53.8,45.558l-0.596-0.044
	c0.182-1.021,0.29-2.119,0.471-2.848l0.443-1.851l0.6-2.029l0.702-2.209l0.751-2.323l0.912-2.451l1.023-2.513l1.182-2.639
	l1.303-2.589l0.49-0.923l0.365,0.124l0.69,0.124l0.331-0.136l0.038-0.287l-0.14-0.39l-0.192-0.326l-0.188-0.274l-0.064-0.107
	l0.097-0.236l0.316-0.36l0.385-0.226l0.254,0.188l0.244,0.265l0.358,0.261l0.216,0.09l0.004,0.004L64.146,22l0.405,0.088
	l0.402,0.085l0.735-0.049l0.337-0.079l0.546-0.324l0.482-0.431l0.34-0.335l0.193,0.475l0.428,0.427l0.103-0.022l0.116,0.115
	l0.785-0.169l0.512-0.832l-0.188-1.065l-0.386-0.849l0.12,0.078l0.156,0.05l0.062,0.04l0.289,0.095l0.289,0.037l0.336-0.081
	l0.335-0.136l0.379-0.253l0.263-0.302l0.086-0.403l-0.083-0.393l-0.199-0.441l-0.308-0.319l-0.248-0.323l-0.188-0.214l-0.061-0.052
	L71.645,17l0.564-0.097l0.264-0.301l0.087-0.404l-0.041-0.564l-0.146-0.503l-0.2-0.442l-0.079-0.194l0.513,0.512l0.151,0.028
	l0.068,0.066l1.667,0.284l0.315-0.363l0.087-0.405l-0.148-0.501l-0.262-0.493l-0.369-0.431l-0.31-0.376l-0.243-0.212l-0.118-0.104
	l0.457,0.026l0.448-0.088l0.451-0.086l0.388-0.141l0.392-0.086l0.275-0.131l0.223-0.071l0.052-0.059l0.372-0.366l0.032-0.343
	l-0.184-0.215l-0.354-0.203l-0.471-0.196l-0.004-0.001l-0.216-0.09l-0.403-0.086l-0.244-0.023l-0.086-0.474l-0.186-0.213
	l-0.172-0.037l-0.048-0.057L73.762,9.47l-0.397,0.029l-0.442,0.145L72.589,9.78l-0.096,0.046l0.115-0.396l-0.302-0.264l-0.108,0.007
	l-0.111-0.099l-0.662,0.046l-0.034-0.063l-0.008-0.112l0.041-0.231l0.205-0.3l0.315-0.419l0.59-0.495l0.42-0.483l0.095-0.29
	l-0.185-0.213l-0.172-0.037L72.644,6.42l-0.404-0.087l-0.458-0.024l-0.585,0.04l0.06-0.068l0.368-0.423l0.683-0.843l0.248-0.527
	l-0.14-0.389L71.939,3.79l-0.41-0.171l-0.396-0.167l-0.637-0.183l-0.633-0.128l-0.36-0.017l0.109-0.084l0.206-0.3l0.021-0.569
	l-0.512-0.818l-0.532-0.305l-0.052,0.004l-0.17-0.098l-0.617,0.048l-0.718,0.332l-0.702,0.503l-0.649,0.5l-0.535,0.488l-0.05,0.057
	l0.032-0.117l-0.104-0.676l-0.555-0.645l-0.19-0.057l-0.029-0.035L63.99,1.214l-0.44,0.199l-0.431,0.372l-0.364,0.478l-0.357,0.594
	L62.145,3.33l-0.136,0.284l-0.251-0.778l-0.242-0.21l-0.18-0.059l-0.04-0.034l-0.29-0.094l-0.285,0.019L60.39,2.595l-0.27,0.191
	l-0.221,0.126l-0.16,0.125L59.685,3.1L59.15,4.375l-0.143-0.157L58.593,3.96l-0.177-0.063l-0.044-0.028l-0.526-0.191l-0.519-0.134
	l-0.466-0.14l-0.193-0.02l0.171-0.1l0.377-0.31l0.244-0.585l-0.17-0.84l-0.368-0.375L56.721,1.1l-0.019-0.017L56.179,0.89
	l-0.684-0.008l-0.731,0.105l-0.672,0.159l-0.558,0.152l-0.348,0.125L53.16,1.034l-0.305-0.321l-0.22-0.092l0,0l-0.121-0.05
	l-0.01-0.005l0,0l-0.221-0.09l-0.173-0.046l-0.957,0.124l-0.608,0.27L50.12,1.247l-0.198,0.413L49.838,2.12l-0.03,0.399l0.077,0.279
	l0.006,0.114l-0.879,0.401l-0.344,0.818l-0.003,0.795l0.019,0.264L48.49,5.045l-0.122-0.017L48.27,4.954l-0.516-0.079L47.252,4.91
	l0.13-1.948l-0.009-0.114l-0.071-0.224l-0.137-0.33l-0.198-0.442l-0.253-0.324l-0.304-0.32l-0.411-0.201l-0.027,0l-0.192-0.092
	l-0.453,0.032l-0.652,0.44l-0.18,0.697l0.101,0.674l0.078,0.278l-1.652,0.573L42.669,2.2l-0.022-0.34l-0.185-0.215l-0.236-0.154
	l-0.093-0.008l-0.128-0.083L41.66,1.368l-0.345-0.034l-0.286-0.038L40.238,1.35l-0.445,0.146l-0.381,0.251l-0.326,0.25l-0.319,0.306
	L38.6,2.544L38.595,2.48l-0.193-0.329l-0.242-0.213L37.943,1.85l-0.004-0.003l-0.351-0.144l-0.35-0.093l-0.284-0.036l-0.283,0.019
	l-0.896,0.124l-0.599,0.381l-0.252,0.472l-0.075,0.574l0.037,0.566l0.134,0.448l0.128,0.045l0.071,0.039l-0.194-0.066l-0.005-0.019
	l-0.277-0.097L34.17,3.987l-0.857-0.055l-0.846,0.114l-0.48,0.432l-0.244,0.585l-0.016,0.626l0.105,0.676l0.151,0.557l0.141,0.389
	l0.047,0.114l-0.353-0.211l-0.133-0.041L31.597,7.12l-0.463-0.14l-0.392,0.085l-0.277,0.132l-0.213,0.186l-0.099,0.233l-0.1,0.179
	l0.003,0.051l-0.373,0.369l-0.038,0.286l0.188,0.27l0.354,0.204l0.126,0.038l0.095,0.054l0.465,0.14L31.28,9.35l0.21,0.019
	l-0.77,0.764l-0.232,0.754l0.043,0.624l0.072,0.222l-1.687-0.569l-0.565,0.041l-0.385,0.196L27.759,11.7l-0.032,0.344l0.025,0.396
	l0.078,0.278l0.073,0.225l0.062,0.109l-1.613-0.345l-1.376,0.663l-0.751,0.67l-0.296,0.646l0.039,0.567l0.261,0.493l0.308,0.377
	l0.306,0.264l0.12,0.106l-0.935,0.461l-0.423,0.483l-0.139,0.464l0.144,0.447l0.311,0.377l0.305,0.32l0.3,0.207l0.117,0.048
	l-0.365,0.48l-0.15,0.295l0.072,0.223l0.178,0.102l0.137,0.042l0.086,0.049l0.291,0.095l0.344,0.035l0.399,0.027l0.455,0.026
	l0.4,0.029l0.451-0.088l0.392-0.082l0.388-0.14l0.274-0.134l0.276-0.131l0.165-0.069l0.038-0.041l0.916,0.495l-0.957,0.123
	l-0.725,0.217l-0.432,0.316l-0.316,0.361l-0.143,0.408l-0.038,0.286l0.022,0.341l0.133,0.275l0.354,0.203l0.102,0.024l0.119,0.07
	l0.577,0.131l0.688,0.066l0.683,0.012l0.624,0.011l0.293-0.019l-0.645,1.302l0.266,0.551l0.204,0.06l0.015,0.032l0.465,0.138
	l0.453-0.03l0.224-0.072l2.813-0.898l0.045,0.142l0.198,0.383l0.354,0.204l0.037-0.014l0.184,0.108l0.557-0.211l0.428-0.368
	l0.146-0.127l0.274,0.273l0.467,0.197h0.002l0.219,0.093l0.341-0.023l0.331-0.14l0.271-0.187l0.214-0.186l0.103-0.177l0.053-0.06
	L38.157,23.3l0.253,0.294l1.264,1.847l1.215,2.02l1.178,2.251l1.126,2.367l1.072,2.369l1.018,2.432l0.897,2.327l0.834,2.216
	l0.707,2.056c0,0,0.597,1.667,0.632,1.771c0.062,0.174,0.131,0.362,0.204,0.553l-0.136,0.01l-1.235,0.257l-1.39,0.434l-1.432,0.777
	l-1.169,1.157l-0.906,1.711l-0.308,2.179l0.036,0.51l0.197,1.238l0.197,0.575c-0.223,0.153-0.357,0.405-0.338,0.685l0.004,0.057
	c0.014,0.216,0.119,0.411,0.281,0.543l0.797,1.146c0.101,0.145,0.246,0.242,0.413,0.293l-0.157,0.94l-0.071,1.424l0.191,1.181
	l0.415,1.05l0.274,0.592c-0.175,0.171-0.276,0.407-0.242,0.655l0.108,0.788c0.042,0.304,0.261,0.555,0.554,0.639l0.226,0.062
	l-0.064,0.674l0.006,0.907l0.123,0.96l0.243,1.062l0.437,0.931c-0.157,0.2-0.212,0.466-0.129,0.717l0.216,0.667
	c0.062,0.186,0.19,0.346,0.363,0.44l0.277,0.15l0.021,0.312l0.112,0.844l0.237,0.951l0.355,1.056l0.583,1.039l0.019,0.022
	c-0.265,0.238-0.337,0.62-0.168,0.937l0.326,0.6c0.079,0.149,0.206,0.265,0.355,0.336l0.197,0.09l-0.006,0.297l-0.003,0.799
	l0.057,0.848l0.229,0.837l0.104,0.176c-0.154,0.255-0.16,0.582,0.018,0.838l0.378,0.542c0.058,0.083,0.131,0.152,0.215,0.208
	l0.033,0.022l-0.089,0.385l-0.066,0.685l0.053,0.793l0.171,0.844l0.341,0.827l0.563,0.757l0.071,0.224l0.158,0.614l0.169,0.84
	l0.229,0.839l0.201,0.493l0.209,0.556l0.141,0.39l0.069,0.165l-0.033,0.343l0.06,0.907l0.305,1.116l0.695,1.031l0.249,0.322
	l0.191,0.328l0.129,0.22l0.066,0.109l1.516,4.725l0.186-0.012l0.033,0.106L55.249,99.562z M38.961,21.866l0.02-0.006l0.207,0.086
	l0.492-0.179l0.476-0.29l0.21-0.143l0.104-0.069l0.229,0.318l1.257,2.181l1.472,2.955l1.581,3.796l1.586,4.712l1.176,4.514
	l-0.704-1.665l-1.201-2.646l-1.221-2.355l-1.131-2.085l-1.149-1.795l-1.014-1.639L40.314,26.2l-0.892-1.142l-0.871-0.972
	l-0.489-0.546l0.4-0.127l0.352-0.388l0.095-0.585l-0.058-0.452l-0.083-0.199L38.961,21.866z M44.053,20.575l0.019,0.569
	l-0.078,0.295l0.053,0.394l0.224,0.828l0.312,0.647l0.159-0.058l0.066,0.139l0.49-0.179l0.368-0.291l0.021,0.532l0.089,1.99
	l0.207,2.032l0.146,1.115l-0.216-0.656l-0.691-1.798l-0.739-1.731l-0.726-1.623l-0.874-1.431l-0.593-0.88l0.933-0.022l0.668-0.18
	L44.053,20.575z M54.652,23.018l0.768,0.186l0.62-0.079l0.3-0.327l0.039-0.156l0.158,0.253l0.432,0.229l0.1,0.011l0.125,0.068
	l0.464,0.056l0.416-0.109l-0.411,0.916l-0.794,1.817l-0.775,1.929l-0.805,2.163l-0.734,2.273l-0.766,2.444l-0.637,2.597
	l-0.569,2.647l-0.497,2.752l-0.189,1.44l-0.036-1.305l-0.068-3.594l0.042-4.064l0.296-4.327l0.457-4.407l0.689-3.727l0.021-0.024
	l0.202-0.197l0.077-0.101l0.296,0.23l0.559,0.326l0.153,0.038L54.652,23.018z M48.066,26.906l-0.15-2.756l0.26,0.055l0.385-0.008
	l0.268,2.731l1.129,4.714l0.307,10.09l-0.892-4.818l-0.816-5.383L48.066,26.906z M50.492,24.018l0.506-0.065l0.277-0.095
	l0.317-0.095l-0.296,1.471l-0.228,2.661l0.063,1.384l-0.029-0.137l-0.66-3.745l-0.154-1.46l0.121-0.015L50.492,24.018z
	 M33.046,5.424l0.03,0.238l-0.104-0.236L32.957,5.38L33.046,5.424z"/>
</svg>
