<?xml version="1.0" encoding="utf-8"?>
<!-- Generator: Adobe Illustrator 16.0.0, SVG Export Plug-In . SVG Version: 6.00 Build 0)  -->
<!DOCTYPE svg PUBLIC "-//W3C//DTD SVG 1.1//EN" "http://www.w3.org/Graphics/SVG/1.1/DTD/svg11.dtd">
<svg version="1.1" id="Layer_1" xmlns="http://www.w3.org/2000/svg" xmlns:xlink="http://www.w3.org/1999/xlink" x="0px" y="0px"
	 width="100px" height="100px" viewBox="0 0 100 100" enable-background="new 0 0 100 100" xml:space="preserve">
<path fill="#2D7F17" d="M39.541,99.678c0,0,19.755-0.489,21.386-17.645c0,0,14.807,8.276,25.809-8.366
	c0,0,9.543-16.573-6.119-25.918c0,0-5.432-3.718-14.993,2.706l-0.646,0.591l0,0c0,0-7.479-24.947-29.361-31.846
	c0,0,4.656,0.887,10.125-6.619c0,0,6.277-12.097,6.343-12.259c0,0-9.332,2.917-12.181,3.111S25.441,7.263,25.124,18.722
	c0,0-12.042,0.789-13.872,13.743c0,0,0.632,11.083-0.395,12.418l-0.471,2.421c0,0,22.363-9.099,17.101-24.136
	c0,0,21.308,3.884,12.531,43.447c0,0-14.713-7.437-20.454,9.271C19.566,75.888,15.594,96.887,39.541,99.678z M42.219,65.452
	c1.517-5.242,7.601-30.771-12.72-44.94c0,0,21.152-0.637,33.704,30.863c0.059,0.146,0.114,0.296,0.168,0.433
	c-2.71-0.231-12.912-0.271-15.155,11.892l0.064,1.645C48.281,65.344,45.428,64.304,42.219,65.452z"/>
</svg>
