<?xml version="1.0" encoding="utf-8"?>
<!-- Generator: Adobe Illustrator 16.0.0, SVG Export Plug-In . SVG Version: 6.00 Build 0)  -->
<!DOCTYPE svg PUBLIC "-//W3C//DTD SVG 1.1//EN" "http://www.w3.org/Graphics/SVG/1.1/DTD/svg11.dtd">
<svg version="1.1" id="Layer_1" xmlns="http://www.w3.org/2000/svg" xmlns:xlink="http://www.w3.org/1999/xlink" x="0px" y="0px"
	 width="100px" height="100px" viewBox="0 0 100 100" enable-background="new 0 0 100 100" xml:space="preserve">
<g id="Fruits_1_" type="MSPage">
	<path id="lemon_2_" type="MSShapeGroup" fill="#2D7F17" d="M21.955,94.185c18.457,10.352,43.79,6.327,61.209-11.169
		c16.951-17.03,21.104-41.488,11.702-59.755l0,0c0.228-1.045,0.495-2.326,0.815-3.624c0.781-3.134-0.864-7.553-4.416-11.095
		c-3.111-3.09-6.888-4.717-9.879-4.55c-0.71,0.04-2.938,0.498-4.997,0.945C58.096-4.29,33.743,0.007,16.836,16.989
		C-0.589,34.498-4.495,59.861,5.962,78.276c0.041,0.835,0.017,1.763-0.146,2.751c-0.617,3.779,1.549,9.57,2.662,10.682
		c1.117,1.115,6.892,3.072,10.655,2.572C20.143,94.146,21.09,94.133,21.955,94.185z"/>
</g>
</svg>
