<?xml version="1.0" encoding="utf-8"?>
<!-- Generator: Adobe Illustrator 16.0.0, SVG Export Plug-In . SVG Version: 6.00 Build 0)  -->
<!DOCTYPE svg PUBLIC "-//W3C//DTD SVG 1.1//EN" "http://www.w3.org/Graphics/SVG/1.1/DTD/svg11.dtd">
<svg version="1.1" id="Layer_1" xmlns="http://www.w3.org/2000/svg" xmlns:xlink="http://www.w3.org/1999/xlink" x="0px" y="0px"
	 width="100px" height="100px" viewBox="0 0 100 100" enable-background="new 0 0 100 100" xml:space="preserve">
<g id="Fruits_2_" type="MSPage">
	<path id="orange_2_" type="MSShapeGroup" fill="#2D7F17" d="M51.871,25.517c20.381,0.937,36.63,17.187,36.675,37.129
		c0.047,20.579-17.173,37.301-38.463,37.349c-21.29,0.048-38.584-16.598-38.629-37.176c-0.045-20.333,16.769-36.896,37.704-37.337
		c-0.792-5.425-2.385-15.707-3.282-16.85c-1.229-1.562-3.085-2.121-3.089-4.329c-0.006-2.209,5.024-4.308,6.785-0.015
		c1.763,4.298,1.854,18.935,1.854,18.935S52.862,8.038,61.27,2.964c8.41-5.07,22.129-2.089,22.129-2.089S79.109,14.61,67.86,17.432
		C57.404,20.065,52.508,24.86,51.871,25.517z"/>
</g>
</svg>
