<?xml version="1.0" encoding="utf-8"?>
<!-- Generator: Adobe Illustrator 16.0.0, SVG Export Plug-In . SVG Version: 6.00 Build 0)  -->
<!DOCTYPE svg PUBLIC "-//W3C//DTD SVG 1.1//EN" "http://www.w3.org/Graphics/SVG/1.1/DTD/svg11.dtd">
<svg version="1.1" id="Layer_1" xmlns="http://www.w3.org/2000/svg" xmlns:xlink="http://www.w3.org/1999/xlink" x="0px" y="0px"
	 width="100px" height="100px" viewBox="0 0 100 100" enable-background="new 0 0 100 100" xml:space="preserve">
<path id="path3848_2_" connector-curvature="0" fill="#2D7F17" d="M41.346,3.183
	c0.48-1.332,0.748-3.053,2.059-2.516c3.233,1.811,4.373,5.001,6.815,8.149c2.396,3.086,3.82,7.103,3.622,11.938
	c16.278,11.125,7.4,24.416,14.867,34.45c4.91,6.599,8.901,23.141,3.506,32.544c-4.791,8.633-15.973,13.349-25.6,11.15
	c-10.392-2.372-20.71-8.861-21.389-25.348c-0.562-13.553,9.133-18.163,14.006-27.87c3.427-15.493,5.369-19.052,12.117-24.536
	c-0.215-3.858-0.951-6.198-3.435-10.229C45.478,6.961,43.778,6.208,41.346,3.183z"/>
</svg>
