<?xml version="1.0" encoding="utf-8"?>
<!-- Generator: Adobe Illustrator 16.0.0, SVG Export Plug-In . SVG Version: 6.00 Build 0)  -->
<!DOCTYPE svg PUBLIC "-//W3C//DTD SVG 1.1//EN" "http://www.w3.org/Graphics/SVG/1.1/DTD/svg11.dtd">
<svg version="1.1" id="Layer_1" xmlns="http://www.w3.org/2000/svg" xmlns:xlink="http://www.w3.org/1999/xlink" x="0px" y="0px"
	 width="100px" height="100px" viewBox="0 0 100 100" enable-background="new 0 0 100 100" xml:space="preserve">
<g>
	<path fill="#2D7F17" d="M50.306,31.868c0,0-6.867-5.047-8.342-15.045c-1.475-9.996-7.727-18.965-17.81-15.687
		c-4.542,2.511-0.197,9.781,4.795,7.207c4.99-2.572,5.654,4.434,5.44,8.532c-0.218,4.102-0.623,6.467-2.306,7.282
		c-1.685,0.813-13.455,10.176-13.455,10.176l19.713,7.752L50.306,31.868z"/>
	<path fill="#2D7F17" d="M14.735,28.108c1.357-5.386,14.742-10.644,24.07-6.203c5.139-6.532,13.236-6.539,21.713-1.006
		c9.094-7.437,23.021,0.925,24.579,6.875c11.221,27.636-9.691,65.534-16.175,68.931c-6.016,3.144-8.368,2.17-11.286-0.324
		c-0.115,0.163-0.503,0.394-0.914,0.617c-0.301,0.188-0.665,0.407-1.077,0.637c-0.011,0.005-0.026,0.018-0.031,0.024
		c0-0.004,0.005-0.007,0.008-0.011c-2.86,1.571-8.116,3.579-11.391-0.512c-0.248-0.403-0.507-0.854-0.773-1.321
		c-3.95,1.711-8.56,2.771-11.893,1.066C25.05,93.548,3.78,55.85,14.735,28.108z"/>
</g>
</svg>
