<?xml version="1.0" encoding="utf-8"?>
<!-- Generator: Adobe Illustrator 16.0.0, SVG Export Plug-In . SVG Version: 6.00 Build 0)  -->
<!DOCTYPE svg PUBLIC "-//W3C//DTD SVG 1.1//EN" "http://www.w3.org/Graphics/SVG/1.1/DTD/svg11.dtd">
<svg version="1.1" id="Layer_1" xmlns="http://www.w3.org/2000/svg" xmlns:xlink="http://www.w3.org/1999/xlink" x="0px" y="0px"
	 width="100px" height="100px" viewBox="0 0 100 100" enable-background="new 0 0 100 100" xml:space="preserve">
<g id="Fruits_6_" type="MSPage">
	<path id="tomato_2_" type="MSShapeGroup" fill="#2D7F17" d="M58.082,27.081c2.673-3.145,5.835-6.367,8.906-8.304
		c-5.691-1.093-13.312,6.779-13.312,6.779s3.136-11.055,5.458-14.897c-5.609,3.195-9.82,12.864-9.82,12.864
		s-1.242-8.446-0.812-12.916c0.293-3.036,2.975-9.593,2.975-9.593l-5.419-0.889c0,0-1.823,6.882-1.78,10.462
		c0.054,4.143,2.057,12.708,2.057,12.708s-8.241-6.457-14.756-7.587c3.878,2.313,7.363,6.871,9.984,11.089
		c-2.488-0.693-5.092-1.068-7.768-1.083c-18.101-0.087-32.86,16.349-32.957,36.71C0.737,82.794,15.333,99.37,33.435,99.459
		c5.526,0.026,11.319,1.181,16.127-0.476c5.098,1.304,11.178,0.609,16.647,0.636c18.1,0.089,32.854-16.346,32.953-36.713
		c0.1-20.361-14.493-36.942-32.594-37.03C63.638,25.862,60.793,26.281,58.082,27.081z"/>
</g>
</svg>
